<?xml version="1.0" standalone="no"?>
<!DOCTYPE svg PUBLIC "-//W3C//DTD SVG 20010904//EN"
 "http://www.w3.org/TR/2001/REC-SVG-20010904/DTD/svg10.dtd">
<svg version="1.0" xmlns="http://www.w3.org/2000/svg"
 width="1280.000000pt" height="1280.000000pt" viewBox="0 0 1280.000000 1280.000000"
 preserveAspectRatio="xMidYMid meet">
<metadata>
Created by potrace 1.15, written by Peter Selinger 2001-2017
</metadata>
<g transform="translate(0.000000,1280.000000) scale(0.100000,-0.100000)"
fill="#000000" stroke="none">
<path d="M7616 10005 c-43 -43 -51 -79 -37 -179 6 -43 11 -79 11 -82 0 -2 -7
-4 -15 -4 -14 0 -86 51 -190 135 -71 58 -109 72 -142 54 -35 -19 -56 -73 -50
-127 2 -24 23 -79 46 -122 58 -112 55 -131 -27 -145 -24 -4 -78 -18 -120 -31
-103 -31 -218 -28 -352 11 l-95 27 -150 -40 c-82 -22 -175 -47 -205 -56 -69
-20 -93 -10 -126 56 -32 63 -132 136 -167 122 -24 -9 -60 -104 -65 -170 -3
-48 0 -69 18 -103 12 -24 19 -46 16 -49 -4 -3 -57 -7 -119 -10 l-112 -4 -34
-36 -34 -36 -16 24 c-49 76 -101 91 -150 42 -15 -15 -30 -34 -33 -42 -4 -12
-23 -6 -93 30 -79 40 -95 45 -156 45 -61 0 -71 -3 -98 -29 -22 -21 -31 -39
-31 -62 0 -28 -6 -37 -42 -58 -24 -14 -83 -38 -133 -55 -49 -16 -94 -36 -99
-43 -5 -9 3 -43 23 -93 32 -84 30 -95 -17 -95 -31 0 -86 61 -114 128 -15 35
-30 54 -45 58 -27 7 -196 -40 -240 -67 -38 -24 -62 -81 -43 -104 7 -8 37 -27
69 -42 31 -15 80 -42 109 -60 l53 -33 -7 -53 c-11 -88 -68 -123 -127 -77 -38
30 -74 33 -152 13 -69 -18 -72 -18 -120 0 -41 16 -59 18 -100 9 -27 -5 -75 -7
-107 -5 -52 5 -57 3 -73 -21 -11 -16 -20 -55 -23 -96 -2 -39 -9 -70 -13 -70
-5 0 -28 5 -52 12 -44 11 -45 11 -130 -40 -73 -44 -94 -52 -136 -52 -115 0
-178 -124 -114 -222 36 -54 82 -158 77 -173 -6 -14 -58 -45 -76 -45 -23 0 -43
-29 -66 -96 -27 -75 -28 -139 -3 -229 21 -74 44 -102 93 -112 45 -9 32 -21
-29 -28 -94 -10 -112 -16 -127 -37 -16 -22 -13 -56 8 -97 7 -14 23 -57 36 -96
17 -55 33 -81 73 -122 l50 -52 5 -83 5 -82 -26 17 c-29 19 -72 23 -82 7 -7
-11 11 -122 26 -159 l10 -24 132 8 c110 5 141 11 190 32 l58 26 38 -21 c21
-12 48 -22 60 -22 16 0 26 -10 37 -35 7 -19 14 -39 14 -45 0 -6 -34 -10 -87
-10 -55 -1 -103 -7 -128 -16 -22 -9 -76 -19 -120 -23 l-80 -6 -5 -55 c-3 -30
-16 -73 -28 -94 -21 -38 -21 -47 -15 -250 6 -243 12 -262 68 -252 33 7 35 5
56 -44 20 -47 27 -53 103 -90 125 -62 119 -53 99 -143 -15 -72 -15 -84 1 -199
10 -68 22 -154 27 -192 12 -84 18 -95 73 -140 59 -49 85 -47 130 8 20 25 45
48 56 51 25 8 75 -29 91 -66 16 -39 74 -89 104 -89 22 0 85 54 85 73 0 21 19
2 36 -35 10 -24 38 -63 61 -88 52 -57 103 -162 103 -213 0 -56 20 -56 102 -1
70 48 99 74 156 142 21 26 39 36 77 43 84 16 105 49 125 199 14 97 36 150 64
150 36 0 210 -20 229 -26 9 -3 25 -20 34 -37 9 -18 36 -50 61 -73 l45 -41 -8
-77 -7 -76 -46 -23 c-41 -19 -51 -31 -81 -92 l-34 -70 14 -150 c17 -194 15
-223 -27 -385 -19 -74 -41 -166 -49 -205 -83 -410 -95 -585 -40 -585 17 0 73
70 85 107 5 15 14 47 20 70 13 51 66 93 118 93 18 0 49 7 70 15 33 15 39 14
69 -2 l33 -17 30 34 c16 19 32 42 35 51 4 12 30 19 103 28 85 10 99 15 118 38
20 25 24 26 85 19 52 -5 78 -2 130 15 54 17 198 80 249 108 8 4 34 44 56 87
53 102 91 124 204 119 l75 -3 5 -74 c4 -55 12 -82 29 -106 12 -18 27 -47 32
-65 13 -47 76 -127 98 -127 60 0 68 107 21 285 -15 61 -26 112 -24 114 9 10
64 -55 75 -88 19 -56 68 -129 92 -137 24 -8 111 -6 139 2 14 4 16 1 9 -23 -4
-15 -7 -48 -7 -73 l1 -45 95 -7 c128 -10 140 -16 140 -72 0 -26 6 -48 15 -56
35 -29 170 -89 215 -95 44 -6 52 -11 71 -45 26 -46 84 -89 176 -132 37 -17 89
-46 114 -65 71 -50 95 -52 171 -9 36 20 69 36 75 36 17 0 33 -49 33 -102 0
-41 -6 -57 -30 -88 -16 -21 -30 -43 -30 -50 0 -7 25 -41 56 -76 51 -58 60 -64
96 -64 39 0 42 -2 144 -85 24 -19 24 -22 13 -71 -14 -62 -9 -78 28 -96 36 -17
69 -77 78 -142 3 -28 15 -65 26 -83 27 -44 117 -122 173 -152 l46 -24 59 27
c32 14 63 26 68 26 15 0 59 -52 82 -97 14 -27 36 -51 64 -68 42 -24 46 -24 90
-11 44 13 47 13 68 -10 34 -36 54 -30 101 33 23 32 60 77 82 100 33 36 46 43
78 43 32 0 40 -5 53 -30 26 -51 57 -41 114 38 27 37 63 75 80 85 17 10 31 26
31 35 0 17 56 122 66 122 2 0 2 -22 -2 -49 -5 -41 -3 -52 15 -70 26 -26 51
-27 101 -1 43 22 72 25 99 10 15 -8 18 -18 14 -55 -7 -58 14 -90 74 -117 36
-16 56 -19 92 -13 79 12 103 7 181 -39 69 -40 84 -44 151 -48 l74 -3 -3 91 -3
91 33 25 c18 14 51 34 74 46 74 38 82 94 23 173 -35 47 -39 59 -34 89 7 38 26
58 65 66 14 3 41 9 61 14 20 6 50 10 66 10 28 0 73 31 73 50 0 6 -11 38 -24
72 -13 35 -27 80 -31 101 -6 35 -2 41 45 91 27 29 50 57 50 63 0 17 57 90 89
112 29 21 33 21 83 7 29 -8 76 -18 104 -21 66 -8 110 13 180 87 78 82 110 157
85 197 -10 15 -168 34 -211 25 -22 -4 -29 1 -44 32 -9 20 -28 46 -42 57 l-25
20 32 33 c26 27 31 40 31 78 -1 25 -8 61 -16 80 -13 30 -20 36 -46 36 -18 0
-33 -6 -36 -15 -19 -48 -44 18 -44 116 0 69 4 88 26 128 l26 46 -57 90 c-31
50 -67 106 -80 125 -12 19 -52 82 -89 140 l-66 105 0 116 0 116 60 110 61 111
-25 104 c-14 56 -39 164 -56 238 -17 74 -44 191 -59 260 -16 69 -43 188 -61
265 -50 224 -89 392 -115 505 -13 58 -29 127 -34 155 l-10 49 42 36 c210 179
465 407 570 510 l128 126 -7 115 -7 115 36 47 c28 37 37 59 41 104 4 32 10 69
15 83 23 63 61 145 78 169 34 46 53 89 53 123 0 18 9 52 20 76 11 24 24 60 30
81 5 20 35 75 65 121 90 137 180 176 293 125 33 -15 67 -25 76 -23 20 4 146
290 146 332 0 20 -16 47 -58 95 -33 36 -76 91 -96 121 -45 65 -45 65 -119 79
-54 10 -61 9 -95 -13 -20 -13 -69 -42 -109 -65 -41 -24 -87 -60 -109 -86 -41
-51 -47 -52 -149 -30 -39 8 -91 15 -117 15 -26 0 -59 5 -75 12 -15 7 -75 15
-133 18 -103 6 -235 34 -405 86 -143 43 -172 42 -349 -5 -125 -33 -225 -37
-326 -12 -47 11 -105 21 -130 21 -70 0 -152 25 -218 67 -33 21 -100 60 -149
88 -68 38 -111 72 -188 151 -132 135 -159 148 -206 98 -26 -28 -91 -64 -152
-84 -35 -11 -41 -10 -76 13 -52 34 -143 80 -247 123 -49 20 -116 49 -150 65
-34 16 -67 29 -75 29 -8 0 -50 -11 -94 -25 l-80 -24 -42 25 c-34 19 -45 33
-54 66 -16 62 -37 85 -111 123 -119 61 -149 42 -156 -101 -3 -46 -8 -84 -12
-84 -5 0 -22 29 -39 65 -21 46 -35 65 -49 65 -30 0 -84 -64 -97 -117 -11 -43
-16 -49 -49 -61 -21 -6 -42 -10 -47 -7 -4 3 -6 41 -2 83 7 92 -13 174 -53 221
-33 40 -55 39 -98 -4z"/>
<path d="M1734 7905 c-19 -30 -44 -114 -44 -152 0 -44 -37 -68 -99 -65 -25 1
-54 -1 -63 -4 -22 -7 -36 -54 -41 -137 -4 -54 -9 -73 -28 -94 -39 -42 -80 -54
-156 -47 -50 5 -85 2 -130 -11 -91 -25 -155 -18 -229 28 -68 42 -100 45 -162
17 -80 -36 -103 -58 -100 -94 2 -26 11 -35 48 -53 27 -14 62 -23 91 -23 45 0
49 -2 125 -80 43 -45 89 -83 102 -87 29 -7 257 35 296 54 27 14 30 13 57 -13
16 -15 41 -45 56 -67 26 -38 28 -46 28 -150 l0 -109 49 -42 c39 -35 47 -47 42
-64 -4 -12 -14 -22 -21 -22 -8 0 -19 -9 -26 -21 -9 -18 -5 -29 25 -73 70 -102
100 -123 211 -146 104 -23 142 -22 199 5 31 15 39 28 81 131 25 64 51 149 57
190 12 77 17 84 38 59 7 -8 21 -15 32 -15 19 0 19 -1 4 -25 -21 -32 -20 -42 5
-56 36 -19 92 5 159 67 47 44 60 63 60 85 0 22 5 29 20 29 10 0 35 14 53 30
42 36 52 37 99 5 46 -31 63 -31 104 0 48 36 51 58 16 113 -40 63 -41 70 -26
122 20 65 17 113 -7 144 -24 31 -47 33 -98 6 l-39 -19 -6 22 c-3 12 -6 50 -6
85 0 54 -3 66 -25 86 -14 13 -40 29 -58 36 -17 6 -70 29 -117 51 -47 21 -97
39 -111 39 -31 0 -139 52 -163 79 -15 17 -16 24 -5 59 10 36 9 44 -9 74 -35
56 -83 76 -185 75 -79 0 -90 -2 -103 -22z"/>
<path d="M2802 7778 c-14 -18 -32 -87 -32 -124 0 -17 10 -44 22 -59 12 -15 32
-55 44 -89 l22 -61 64 3 c40 1 79 -3 106 -14 39 -14 46 -14 89 0 26 9 75 16
110 16 72 0 118 18 126 50 12 46 -21 116 -78 168 -61 56 -111 77 -158 68 -18
-4 -39 -7 -47 -7 -32 0 -196 37 -217 49 -27 15 -38 15 -51 0z"/>
<path d="M2850 6448 c-30 -11 -63 -27 -72 -36 -20 -17 -23 -57 -8 -97 7 -20 6
-34 -6 -56 -15 -31 -19 -33 -66 -43 -39 -9 -52 -38 -37 -84 18 -52 41 -70 104
-77 54 -7 54 -7 70 -54 12 -35 28 -56 70 -88 30 -24 64 -43 74 -43 11 0 28 15
41 35 26 42 36 43 85 9 34 -23 44 -25 95 -19 45 5 59 3 69 -9 8 -9 26 -16 42
-16 68 0 64 97 -10 241 -42 84 -48 102 -44 141 4 30 1 47 -8 55 -34 28 -245
144 -277 153 -49 13 -58 12 -122 -12z"/>
<path d="M1677 6293 c-4 -3 -7 -12 -7 -19 0 -17 -14 -48 -47 -108 -33 -58 -58
-69 -208 -92 -179 -26 -198 -31 -212 -50 -17 -24 -17 -33 5 -74 33 -62 35 -89
10 -126 -24 -35 -38 -43 -38 -21 0 21 -96 211 -114 226 -13 11 -22 12 -34 4
-18 -11 -20 -32 -8 -103 7 -43 6 -48 -31 -89 -33 -37 -45 -44 -78 -45 -36 -1
-40 -4 -47 -36 -4 -19 -7 -70 -6 -113 0 -43 -2 -80 -5 -84 -4 -3 -31 45 -60
108 -67 141 -115 189 -191 189 -23 0 -65 -38 -85 -77 -9 -17 -21 -23 -44 -23
-18 0 -42 -6 -53 -14 -19 -14 -18 -15 4 -60 12 -26 22 -56 22 -68 0 -47 56
-106 145 -151 l30 -15 -30 -12 c-16 -7 -57 -17 -90 -22 -69 -12 -105 -42 -105
-88 0 -34 16 -45 83 -55 35 -5 45 -11 38 -18 -6 -6 -11 -22 -11 -36 l0 -26
-18 21 c-22 28 -57 45 -76 38 -29 -11 -28 -43 3 -99 l30 -54 -34 6 c-73 12
-87 -52 -34 -152 29 -54 41 -65 121 -112 49 -30 100 -53 116 -53 16 0 43 13
65 31 l37 30 11 -28 c7 -15 14 -54 17 -87 4 -56 6 -59 49 -85 24 -14 63 -43
85 -64 45 -42 75 -57 114 -57 29 0 30 -7 5 -34 -35 -38 -61 -100 -61 -143 0
-51 -9 -54 -32 -12 -16 26 -22 30 -55 27 l-38 -3 -36 -100 c-21 -61 -53 -125
-81 -165 -25 -36 -50 -81 -55 -100 -14 -50 0 -202 20 -234 9 -14 48 -44 87
-67 92 -54 110 -50 152 35 26 52 37 65 61 70 37 7 87 43 87 62 0 8 10 34 22
57 33 64 85 249 89 320 2 24 15 61 32 88 24 39 29 60 34 140 3 67 10 101 23
119 9 14 27 44 38 67 22 43 42 53 103 53 26 0 49 10 82 35 37 28 55 35 91 35
25 0 48 5 51 10 12 19 25 10 25 -19 0 -52 21 -58 108 -27 42 14 85 26 94 26 9
0 36 -25 60 -55 24 -30 53 -57 64 -61 32 -8 80 21 110 66 38 57 29 102 -28
153 l-43 39 65 -5 c36 -3 83 -9 106 -12 48 -8 74 11 74 53 0 22 26 107 37 121
1 2 12 -8 24 -22 38 -49 88 -26 114 54 10 28 36 91 59 141 l42 90 27 -31 c38
-45 61 -40 95 19 16 28 37 75 47 105 16 47 22 54 41 49 30 -8 90 20 105 48 7
12 20 55 29 93 9 39 20 70 25 70 6 0 29 -38 52 -85 24 -46 50 -88 59 -93 23
-13 119 11 141 35 13 14 18 36 17 77 -1 85 -18 110 -99 151 -87 44 -138 79
-165 113 -23 29 -107 95 -191 149 -30 20 -78 59 -107 87 -41 40 -59 51 -85 51
-19 0 -56 14 -90 35 -61 37 -92 44 -100 23 -3 -9 -12 -6 -30 11 -27 25 -28 25
-117 -1 -68 -20 -71 -23 -64 -76 l6 -47 -48 -18 -48 -17 -54 27 c-31 16 -71
47 -91 72 -61 75 -178 140 -204 114z"/>
</g>
</svg>
