<?xml version="1.0" encoding="UTF-8"?>
<svg id="svg2" xmlns="http://www.w3.org/2000/svg" xmlns:svg="http://www.w3.org/2000/svg" xmlns:rdf="http://www.w3.org/1999/02/22-rdf-syntax-ns#" xmlns:dc="http://purl.org/dc/elements/1.1/" xmlns:cc="http://creativecommons.org/ns#" version="1.1" viewBox="0 0 189.1 191.8">
  <defs>
    <style>
      .cls-1 {
        fill: #000;
        fill-rule: evenodd;
        stroke-width: 0px;
      }
    </style>
  </defs>
  <g id="layer1">
    <path id="path8072" class="cls-1" d="M102.8,189.1c.3-2,0-2.1,0-4.4s-.2-3.3.3-5.3c.3-1.1.2-3.5,1.4-4.7.8-.8,5.9-2.5,8.3-4.6,2-1.8,2.8-3.7,6.2-3.7s3.1,3.1,4.5,3c4.8-.3,3.4,1.8,6.2,2.5,2.8.7,2.5-1.4,4.8-.3,1.5.7,4.6,1.4,5.5,2.4,2,2.2,4.1,2.1,5.6,3.7.2.2,5.5,1.6,8.6,1.4,2.3-.1,6-1.1,6.5-2.2.5-1.3.7-2.2,2.8-4.3,1.8-1.8,3.5-3.3,5.5-4.2,2.5-1.1,4-3.7,5.5-5.1,2.4-2.1,5-3.4,4.3-5.2-1.6-4-3.9,1.5-6.9-1.3-.7-.6-5.8-2.7-6-4.5-.2-1.5-.5-2.3.9-5.2,1.1-2.1,3.8-3.2,1.7-5.3s-2-.9-3.3-2.3-2.7-1.7-2.3-4.2c.3-2.4,3.3-2.3,5.8-2.3s1.9-1.1,2.2-2.4c.4-2-.2-3-2.2-6.5-.5-.9-2.3-.5-2.3-3.9,0-3.5,3.3-1.9,3.2-5.1,0-1.8-4.6-1.5-3.8-3.1.1-.2,1.7-5.9-.1-6.2-.6-.1-7.1-.1-7.1,2.4s-.2,3.9-1.4,4.2c-3,.6-4.2-.7-3-3.1,1.2-2.4,2.2-2.4,2.9-5.1,1.6-6.5,2-3.8,4.7-5.6,0,0-.1-4.4,1.6-4.8,2.4-.7,3.1-1.4,5.2-3.8.7-.7,1-4.2,1.8-6,.7-1.5,2.6-.4,4.2-.5,3.5,0,5-1.4,4.5-4.5-.4-2.7,1.3-3.2,1-6.7-.2-3.1.5-4.2,1.6-6.6.8-1.7,1.2-4.6,1.7-6.6.9-3.7.8-2.5,3.5-4,2.1-1.1,3.1-6.1-.5-6.1s-2.1.2-4.8-.6c-.9-.3-2.3-2.5-3.7-1.5-1.1.7-3.3.1-4.3-.8-1.2-1.1-5.4-.7-6-1.3-1.2-1.2-1.1-5.2-2.3-5.6-2.4-1-5.6-.2-7.8-1.4-3.2-1.8-6-.2-6.6-1.3-1.2-2.5-1.9-3.4-4.3-4.6-.7-.4-4.2-1.8-4.2-2.7,0-2.2.3-3.7-.2-5.8-1.1-4.5-1.3.4-2.3,2-1.2,1.9-1.4.9-3.7.7-3-.3-3.6-1.2-3.6-4.7s-.8-2.5-3.3-3c-2.9-.6-3.9-1.5-5.5-3.7-.4-.5-2.8-5.1-2.8-5.5,0-3.6-1.7-3-3.5-2.1-4.2,2.1-1.1-1.6-3.8-1.7-1.9-.1-1.1-5.5-3-5.5-2.8,0-4.6.3-7.4.3s-4.5-.6-5,2.5c-.3,2.1-1.2,4.7-1,6.8.1,2.4-1.8,3.9-.3,5.8,2.1,2.8-1.7,1.5-2.5,3.1-.9,1.9-.6,1.3-2.7,2.3-1.4.7-4,1.7-6.3,1.8-1.5,0-5.8.6-7,1-3.2,1.1-2.7,1.6-2.7,5.5,0,3-1.2,2.6-4,3.6-1.4.4-3.1.6-4.6-.6-1.2-.9-3.7-1.2-5.8-1.7-3-.7-5.6-1.2-6-3.2-.3-1.3-.4-4.6-1.3-4.6-1.9,0-3.8-.1-5.1-1.4-1.7-1.7-3.1-1.7-3.8,1.3-.7,2.8,1.6,2.1,1.5,5.2-.1,3.4,1,5.2,1,9.2s-.6,3.5.7,6-1.2,3.5-3.7,1.6c-3.2-2.4-2.9-.7-5.5-.7s-3.5-3.1-4.6-1.3c-1,1.6-4.6,2.4-6.3-.3-1.3-2-.4-4.8-2-5.5-2-1-2.7-.3-5.4-.6-2.7-.3-2.2,2.2-3.6,2.1-1.5-.1-2.3-.1-4.5-.1s-3.8-2.3-5.3-1.2c-1.5,1.1-6.5-.9-7.1,2.4-.2,1-1.3,3,.2,3.3,3.4.7-.4,4.3,3,4.4,2.2,0,3.1,1.8-1.5,1.8s-2.8,1.9.2,3.5c1.4.7.8,4.4,2.4,4.4,1.5,0,4.5-1.9,7.5,1,1.7,1.7,3.9,2.7,6.1,2.9,3,.3.6,4.3,2.4,3.8,6.2-1.7,5.8-.8,5.1.3-1,1.6-1.3,2.9,1.7,2.2,3.6-.9,1.6,1,1.4,3.3-.2,1.9-.4,3.1,3.6,3.1s-.8,1.4.9,2.9c1.5,1.3,1.8,5.2.2,4-2.4-1.7-3.8-.5.8,4.6,2.1,2.3,1.7,3.4,3.2,6.5.8,1.6,2.2,3.9,4.3,3.9s4-1.1,3.3,4c-.3,2.4-.5,2.7-.7,5.2-.2,4-.8,1.9-1.5,3.8-.6,1.6.2,2.7,1.4,2.8,1.7.2,2.5,2.5,3.7,4.3.7,1.1,1.2,2.4,1.3,4.4.1,2.9-1,2.4-1.8-.7-.9-3.3-1.6-4.3-2.3-4.7-1.7-1-2.5.5-3.2,3.5-.6,2.6-1.1,6.3-1.8,9.1-.3,1.1-2.4,4.3-.5,4.4,4.3.1,3.5,2.7.3,2.5-2.8-.1-.9,2.1-2.5,6.2-.8,1.9-1.5,3.1-2.5,5.3-1.2,2.4-1.6,3.7-2.8,6.1-.7,1.5-.3,3.1-1.2,4.8-1.1,2.2-2.1,2.7-5.3,2.9-.5,0,.9-.3,2.5,1.9.9,1.2,3.4.5,4.6,1.1.6.3-1.4,3.1-.8,4.9.4,1.4,2.4.4,4.3,1.7.9.6.9,2.1,3.8,2.1s3.7.8,3.7,2.7,1.5,1.4,3.3,1.4,3.5-.5,4,1.5c.5,2.1.9,2.1,2.9,2.1,1.8,0,3.4.2,5.1,0,2.5-.2,1.3,1.1,4.2.9,1.6-.1,1.6-.5,1.6-2.5s3.6.5,4.2,1c1.7,1.3,2.8,2.4,3.7,2.3,1.3-.1,2.2,1.8,3,1.9,1.3,0,1,2.5,1,3.6,0,2.5.9,1.9,3.3,1.9s3.4-.5,4.2,1.4c.4.8.1,1.4,2,1.4,2.3,0,1.1-1.2,3.6-1.1,3.2.1,2.3,2.7,5.3,2.4,2.7-.2.8-2,4.7-2,2,0,1.2-.9,2.5-.7h0Z"/>
  </g>
</svg>