<?xml version="1.0" encoding="UTF-8"?><svg id="Layer_2" xmlns="http://www.w3.org/2000/svg" viewBox="0 0 311.84 295.44"><defs><style>.cls-1{fill:#fff;}</style></defs><g id="Layer_1-2"><path d="M155.29,295.44c-3.67-12.02-6.52-24.65-9.13-36.93-.39-3.06.3-6.15.1-9.23,0-5.73,0-21.73,0-27.7,0-53.26,0-131.59,0-184.65C148.91,24.54,151.74,12.23,155.29,0c3.55,12.23,6.38,24.54,9.03,36.93,0,52.98,0,131.46,0,184.65,0,5.94,0,21.91,0,27.7-.2,3.09.49,6.17.1,9.23-2.61,12.27-5.46,24.9-9.13,36.93h0Z"/><line class="cls-1" x1="182.71" y1="223.44" x2="311.84" y2="223.43"/><polygon points="182.71 213.93 311.84 223.43 182.71 232.93 182.71 213.93 182.71 213.93"/><line class="cls-1" x1="129.13" y1="223.43" x2="0" y2="223.43"/><polygon points="129.13 232.93 0 223.43 129.13 213.93 129.13 232.93 129.13 232.93"/></g></svg>