<?xml version="1.0" encoding="UTF-8"?>
<svg id="Layer_1" data-name="Layer 1" xmlns="http://www.w3.org/2000/svg" version="1.1" viewBox="0 0 450 322">
  <defs>
    <style>
      .cls-1 {
        fill: #000;
        stroke-width: 0px;
      }
    </style>
  </defs>
  <polygon class="cls-1" points="428 218 445 241 450 270 444 288 428 281 409 298 404 307 404 322 385 316 380 313 339 310 283 296 232 273 211 245 207 242 190 234 187 229 187 192 181 151 175 132 162 120 177 109 192 102 209 98 227 96 227 105 217 106 210 109 194 120 287 129 307 135 346 163 380 173 386 182 388 193 388 205 394 206 428 218"/>
  <polygon class="cls-1" points="86 0 116 9 154 29 177 48 162 57 142 57 110 69 90 73 68 72 44 66 21 58 2 48 5 35 1 23 0 13 14 9 86 0"/>
</svg>